<svg width="28" height="28" viewBox="0 0 28 28" fill="none" xmlns="http://www.w3.org/2000/svg">
<path d="M9.33333 18.6667L19.5068 17.8189C22.69 17.5537 23.4046 16.8583 23.7574 13.6837L24.5 7" stroke="white" stroke-width="1.5" stroke-linecap="round"/>
<path d="M7 7H25.6667" stroke="white" stroke-width="1.5" stroke-linecap="round"/>
<path d="M7 25.6667C8.28866 25.6667 9.33333 24.622 9.33333 23.3333C9.33333 22.0447 8.28866 21 7 21C5.71133 21 4.66667 22.0447 4.66667 23.3333C4.66667 24.622 5.71133 25.6667 7 25.6667Z" stroke="white" stroke-width="1.5"/>
<path d="M19.8333 25.6667C21.122 25.6667 22.1667 24.622 22.1667 23.3333C22.1667 22.0447 21.122 21 19.8333 21C18.5447 21 17.5 22.0447 17.5 23.3333C17.5 24.622 18.5447 25.6667 19.8333 25.6667Z" stroke="white" stroke-width="1.5"/>
<path d="M9.33333 23.3333H17.5" stroke="white" stroke-width="1.5" stroke-linecap="round"/>
<path d="M2.33333 2.33331H3.46033C4.56246 2.33331 5.52316 3.062 5.79047 4.10073L9.26161 17.5892C9.43702 18.2709 9.2869 18.993 8.85295 19.5552L7.73749 21" stroke="white" stroke-width="1.5" stroke-linecap="round"/>
</svg>
